<svg xmlns="http://www.w3.org/2000/svg" viewBox="0 0 181 57.44"><defs><style>.cls-1{fill:#97c93f;}.cls-2{fill:#303030;}</style></defs><title>logo-platzi</title><g id="Capa_2" data-name="Capa 2"><g id="Capa_1-2" data-name="Capa 1"><path class="cls-1" d="M41.64,48.36q-3.09,3.06-6.17,6.13a9.18,9.18,0,0,1-3.39,2.29c-3.6,1.28-6.94.75-9.67-1.93C15.76,48.33,9.2,41.73,2.64,35.11a9.05,9.05,0,0,1,0-12.81q9.78-9.87,19.66-19.66a9.08,9.08,0,0,1,12.78,0q6.66,6.56,13.22,13.22a9,9,0,0,1,.11,12.64c-4,4.19-8.22,8.26-12.34,12.38-.15.15-.28.31-.43.47-.4.23-.4.44-.05.78,1.91,1.88,3.81,3.79,5.7,5.69.15.15.42.26.32.56m0-26.09c0-.24-.23-.34-.36-.47L29.14,9.64c-.3-.31-.47-.37-.81,0Q19,19,9.61,28.34c-.32.32-.29.47,0,.77Q19,38.46,28.34,47.84c.31.3.46.31.77,0q2.84-2.88,5.71-5.71c.31-.31.35-.48,0-.81-1.9-1.87-3.77-3.78-5.68-5.65-.35-.35-.39-.52,0-.89,4-4,8.09-8.07,12.12-12.1l.39-.41"/><path class="cls-2" d="M63,28.8c0-5.44,0-10.87,0-16.31,0-.53.14-.63.64-.62,4.49,0,9,0,13.47,0a11.77,11.77,0,0,1,7.65,2.54A11.39,11.39,0,0,1,89,22.94a11.51,11.51,0,0,1-3.78,9.75,11.31,11.31,0,0,1-7.58,2.88c-2.74,0-5.49,0-8.24,0-.54,0-.71.09-.71.68,0,3,0,6,0,8.94,0,.43-.08.6-.56.58q-2.27,0-4.53,0c-.47,0-.61-.11-.6-.6Q63,37,63,28.8m5.57-5.08c0,2.14,0,4.29,0,6.44,0,.41.11.51.51.51,2.61,0,5.22,0,7.84,0a6.72,6.72,0,0,0,1.94-.26,6.65,6.65,0,0,0,4.71-6.57c.1-3.78-2.4-7.18-6.9-7.07-2.51,0-5,0-7.54,0-.48,0-.57.15-.56.59,0,2.12,0,4.25,0,6.38"/><path class="cls-2" d="M122.82,41.33c-.37.46-.63,1-1,1.42a8.58,8.58,0,0,1-7.32,3.33c-5.28-.16-8.91-3.42-10-8.8a14.37,14.37,0,0,1,.52-8.11,10.77,10.77,0,0,1,8.32-6.82A21.88,21.88,0,0,1,126.77,24c.34.14.33.37.32.64V39.19c0,.38,0,.77,0,1.16.12,1.19.65,1.72,1.85,1.68.59,0,.65.2.63.68,0,.83,0,1.66,0,2.5,0,.21,0,.42-.28.46a10.17,10.17,0,0,1-3.81,0,3.33,3.33,0,0,1-2.68-3.34c0-.33,0-.66,0-1M122,31.12c0-1.23,0-2.35,0-3.47a.59.59,0,0,0-.45-.67,12.13,12.13,0,0,0-5.87-.67A6.46,6.46,0,0,0,110,31a9.92,9.92,0,0,0,.06,6,6,6,0,0,0,7.67,4.06c2.27-.64,3.37-2.38,4-4.53a21.8,21.8,0,0,0,.35-5.49"/><path class="cls-2" d="M159.58,41.19h3.3c2.69,0,5.38,0,8.07,0,.38,0,.54.06.53.5,0,1.22,0,2.44,0,3.66,0,.31-.07.43-.41.43H152.49c-.41,0-.61-.67-.36-1.21.06-.12.15-.22.22-.34,3.65-5.74,7.29-11.48,11.24-17l.29-.45h-.65c-3.31,0-6.62,0-9.93,0-.43,0-.55-.1-.53-.53,0-1.11,0-2.21,0-3.31,0-.37.08-.49.47-.48q8.88,0,17.77,0c.49,0,.53.19.49.57a1.22,1.22,0,0,1-.27.56c-3.73,5.78-7.41,11.6-11.37,17.22-.08.11-.14.22-.28.42"/><path class="cls-2" d="M135.47,32.48c0-1.73,0-3.45,0-5.17,0-.43-.07-.6-.55-.58-1.24,0-2.48,0-3.72,0-.35,0-.51-.05-.5-.46,0-1.12,0-2.25,0-3.37,0-.41.15-.47.51-.47,1.21,0,2.44,0,3.65,0,.55,0,.62-.17.61-.64,0-1.51,0-3,0-4.53,0-.48.14-.57.58-.56,1.35,0,2.71,0,4.06,0,.51,0,.6.15.59.61,0,1.49,0,3,0,4.47,0,.57.18.65.67.64,2.29,0,4.57,0,6.86,0,.47,0,.57.14.56.58,0,1.08,0,2.17,0,3.25,0,.4-.13.47-.49.47-2.36,0-4.72,0-7.08,0-.41,0-.52.09-.51.51,0,3.21,0,6.42,0,9.64a7.62,7.62,0,0,0,.52,3.06,3.79,3.79,0,0,0,4,2.32,12,12,0,0,0,3.51-.73c.36-.14.48-.06.53.32.11,1.06.26,2.11.4,3.16,0,.2.07.36-.21.44a15.92,15.92,0,0,1-8.12.63c-3.12-.73-4.8-2.83-5.5-5.85a21.63,21.63,0,0,1-.36-5.08c0-.89,0-1.78,0-2.67"/><path class="cls-2" d="M92.48,25.58c0-4.39,0-8.78,0-13.18,0-.44.11-.54.54-.53,1.39,0,2.79,0,4.18,0,.44,0,.54.1.54.53q0,12.29,0,24.57a12.12,12.12,0,0,0,.22,2.82A2.56,2.56,0,0,0,100.62,42a6.69,6.69,0,0,0,1.73-.1c.3-.07.41,0,.42.34,0,1.12.1,2.24.17,3.36,0,.23,0,.33-.29.37a14.75,14.75,0,0,1-5.42.06c-2.57-.56-3.85-2.33-4.39-4.77A19.74,19.74,0,0,1,92.48,37c0-3.81,0-7.62,0-11.44"/><path class="cls-2" d="M180.46,34.13c0,3.68,0,7.36,0,11,0,.48-.12.61-.61.6-1.41,0-2.82,0-4.23,0-.36,0-.46-.09-.46-.45q0-11.2,0-22.41c0-.36.08-.46.45-.46,1.43,0,2.86,0,4.3,0,.5,0,.54.18.54.59q0,5.55,0,11.09"/><path class="cls-2" d="M177.87,18.06a3.05,3.05,0,0,1-3.22-3.13,3,3,0,0,1,3.24-3.1A3,3,0,0,1,181,15a3,3,0,0,1-3.13,3.08"/></g></g></svg>